<svg xmlns:xlink="http://www.w3.org/1999/xlink" xmlns="http://www.w3.org/2000/svg" id="Layer_1" data-name="Layer 1" viewBox="0 0 503 96" width="503"  height="96" ><defs><style>.cls-1{fill:#fff;}</style></defs><path class="cls-1" d="M622.62,293.6,609.7,317.36h25.83L622.61,293.6Zm50,47.77h-100l50-92,50,92Z" transform="translate(-169.61 -249.36)"/><polygon class="cls-1" points="339 68 339 0 315 0 315 92 391 92 391 68 339 68"/><path class="cls-1" d="M422.62,293.6,409.7,317.36h25.83L422.61,293.6Zm50,47.77h-100l50-92,50,92Z" transform="translate(-169.61 -249.36)"/><path class="cls-1" d="M326.61,345.36a45.94,45.94,0,0,1-46-46v-50h24v50a21,21,0,0,0,21,21h2a21,21,0,0,0,21-21v-50h24v50a46,46,0,0,1-46,46Z" transform="translate(-169.61 -249.36)"/><path class="cls-1" d="M200.65,280.4a24,24,0,1,0,17-7A23.83,23.83,0,0,0,200.65,280.4Zm-1.71,61.19a48,48,0,1,1,62.9-25.54c-.34.81-.71,1.61-1.09,2.4l13.12,10.25-12.31,15.76-13.15-10.27a48,48,0,0,1-49.47,7.4Z" transform="translate(-169.61 -249.36)"/></svg>